<?xml version="1.0" encoding="UTF-8"?>
<svg id="_레이어_1" data-name="레이어 1" xmlns="http://www.w3.org/2000/svg" viewBox="0 0 938 949.58">
  <defs>
    <style>
      .cls-1 {
        fill: #fff;
      }
    </style>
  </defs>
  <g>
    <path d="M98.5,647.08c-54.04,0-98-43.96-98-98,0-39.65,23.7-75.17,60.37-90.49,8.16-3.41,13.2-11.62,12.54-20.44-.66-8.82-6.86-16.19-15.44-18.35C24.13,411.29.5,380.97.5,346.08c0-41.91,34.09-76,76-76,14.72,0,29,4.23,41.3,12.23,3.33,2.17,7.2,3.32,11.18,3.32,4.78,0,9.43-1.68,13.1-4.73,6.95-5.77,9.3-15.26,5.85-23.61-7.58-18.32-11.42-37.74-11.42-57.71,0-83.54,67.96-151.5,151.5-151.5s151.5,67.96,151.5,151.5-67.96,151.5-151.5,151.5c-38.43,0-75.1-14.47-103.26-40.75-3.81-3.55-8.78-5.51-13.99-5.51-3.55,0-7.06.93-10.15,2.69-7.84,4.47-11.81,13.4-9.86,22.21,1.17,5.34,1.77,10.84,1.77,16.36,0,28.96-16.15,55.03-42.15,68.03-7.91,3.96-12.38,12.5-11.12,21.25,1.26,8.76,7.96,15.69,16.66,17.26,46.7,8.4,80.6,48.96,80.6,96.46,0,54.04-43.96,98-98,98Z"/>
    <path class="cls-1" d="M288,48.58c83.26,0,151,67.74,151,151s-67.74,151-151,151c-38.3,0-74.85-14.43-102.92-40.62-3.9-3.64-8.99-5.65-14.33-5.65-3.64,0-7.23.95-10.4,2.76-8.03,4.58-12.09,13.73-10.1,22.76,1.17,5.3,1.76,10.77,1.76,16.25,0,28.77-16.04,54.67-41.87,67.59-8.11,4.05-12.68,12.8-11.39,21.77,1.29,8.97,8.15,16.07,17.07,17.68,46.47,8.36,80.19,48.71,80.19,95.96,0,53.76-43.74,97.5-97.5,97.5S1,602.84,1,549.08c0-39.45,23.57-74.79,60.06-90.03,8.36-3.49,13.52-11.91,12.85-20.94-.68-9.03-7.03-16.59-15.82-18.8C24.48,410.86,1,380.74,1,346.08c0-41.63,33.87-75.5,75.5-75.5,14.62,0,28.81,4.2,41.03,12.15,3.42,2.22,7.38,3.4,11.45,3.4,4.89,0,9.66-1.72,13.42-4.85,7.12-5.91,9.52-15.63,5.99-24.18-7.55-18.26-11.38-37.61-11.38-57.52,0-83.26,67.74-151,151-151M288,47.58c-83.81,0-152,68.19-152,152,0,20.04,3.86,39.52,11.46,57.9,3.35,8.1,1.04,17.43-5.7,23.03-3.68,3.06-8.22,4.62-12.78,4.62-3.78,0-7.57-1.07-10.9-3.24-12.38-8.06-26.76-12.31-41.57-12.31-42.18,0-76.5,34.32-76.5,76.5,0,35.12,23.79,65.63,57.84,74.2,8.35,2.1,14.42,9.31,15.06,17.9.64,8.59-4.29,16.63-12.24,19.95C23.82,473.53,0,509.23,0,549.08c0,54.31,44.19,98.5,98.5,98.5s98.5-44.19,98.5-98.5c0-47.73-34.07-88.51-81.02-96.95-8.48-1.52-15.03-8.31-16.26-16.84-1.23-8.53,3.14-16.88,10.85-20.74,26.17-13.09,42.42-39.33,42.42-68.48,0-5.55-.6-11.09-1.78-16.47-1.88-8.55,2.02-17.33,9.62-21.67,3.09-1.77,6.51-2.63,9.9-2.63,4.95,0,9.85,1.83,13.65,5.38,28.26,26.37,65.05,40.89,103.6,40.89,83.81,0,152-68.19,152-152S371.81,47.58,288,47.58h0Z"/>
  </g>
  <g>
    <path d="M213.5,851.08c-54.04,0-98-43.96-98-98s43.96-98,98-98c.94,0,1.87.01,2.8.04.2,0,.4,0,.59,0,7.58,0,14.51-4.15,18.08-10.84,3.69-6.91,3.16-15.16-1.38-21.54-11.84-16.63-18.09-36.23-18.09-56.66,0-54.04,43.96-98,98-98,24.63,0,48.2,9.22,66.35,25.95,18.06,16.65,29.16,39.18,31.28,63.46.7,8.02,6.06,14.91,13.65,17.57,2.18.76,4.46,1.15,6.77,1.15,5.59,0,11.01-2.32,14.86-6.38,15.19-15.97,35.64-24.76,57.59-24.76,43.84,0,79.5,35.66,79.5,79.5s-35.66,79.5-79.5,79.5c-18.92,0-37.27-6.79-51.66-19.13-14.25-12.21-23.76-29.04-26.79-47.39-1.31-7.94-7.17-14.4-14.94-16.47-1.73-.46-3.5-.69-5.28-.69-6.18,0-11.97,2.75-15.88,7.54-18.75,22.97-46.43,36.15-75.95,36.15-.94,0-1.87-.01-2.8-.04-.2,0-.4,0-.59,0-7.58,0-14.51,4.15-18.08,10.84-3.69,6.91-3.16,15.16,1.38,21.54,11.84,16.63,18.09,36.23,18.09,56.66,0,54.04-43.96,98-98,98Z"/>
    <path class="cls-1" d="M313.5,468.58c24.51,0,47.95,9.17,66.01,25.82,17.97,16.56,29.02,38.98,31.12,63.14.71,8.21,6.2,15.28,13.98,18,2.24.78,4.57,1.18,6.93,1.18,5.73,0,11.28-2.38,15.22-6.53,15.09-15.87,35.41-24.61,57.23-24.61,43.56,0,79,35.44,79,79s-35.44,79-79,79c-18.8,0-37.03-6.75-51.33-19.01-14.16-12.14-23.61-28.86-26.62-47.09-1.34-8.13-7.35-14.75-15.31-16.87-1.77-.47-3.59-.71-5.41-.71-6.33,0-12.26,2.81-16.27,7.72-18.66,22.85-46.2,35.96-75.56,35.96-.95,0-1.89-.01-2.79-.04-.2,0-.4,0-.6,0-7.77,0-14.86,4.26-18.52,11.11-3.78,7.08-3.24,15.53,1.41,22.07,11.77,16.55,18,36.04,18,56.37,0,53.76-43.74,97.5-97.5,97.5s-97.5-43.74-97.5-97.5,43.74-97.5,97.5-97.5c.95,0,1.89.01,2.79.04.2,0,.4,0,.6,0,7.77,0,14.86-4.26,18.52-11.11,3.78-7.08,3.24-15.53-1.41-22.07-11.77-16.55-18-36.04-18-56.37,0-53.76,43.74-97.5,97.5-97.5M313.5,467.58c-54.31,0-98.5,44.19-98.5,98.5,0,20.54,6.29,40.23,18.18,56.95,4.4,6.18,4.92,14.32,1.35,21.02-3.48,6.52-10.27,10.58-17.64,10.58-.19,0-.38,0-.58,0-.93-.03-1.87-.04-2.81-.04-54.31,0-98.5,44.19-98.5,98.5s44.19,98.5,98.5,98.5,98.5-44.19,98.5-98.5c0-20.54-6.29-40.23-18.18-56.95-4.4-6.18-4.92-14.32-1.35-21.02,3.48-6.52,10.27-10.58,17.64-10.58.19,0,.38,0,.58,0,.93.03,1.87.04,2.81.04,29.67,0,57.49-13.24,76.34-36.33,3.85-4.72,9.58-7.35,15.49-7.35,1.71,0,3.45.22,5.15.68,7.6,2.03,13.3,8.31,14.58,16.07,3.04,18.46,12.61,35.39,26.95,47.69,14.48,12.41,32.94,19.25,51.98,19.25,44.11,0,80-35.89,80-80s-35.89-80-80-80c-22.09,0-42.67,8.85-57.96,24.92-3.84,4.04-9.11,6.22-14.5,6.22-2.21,0-4.44-.37-6.6-1.12-7.42-2.6-12.64-9.31-13.32-17.14-2.12-24.41-13.29-47.06-31.44-63.79-18.25-16.82-41.93-26.08-66.69-26.08h0Z"/>
  </g>
  <g>
    <path d="M441,949.08c-56.52,0-102.5-45.98-102.5-102.5s45.98-102.5,102.5-102.5,102.5,45.98,102.5,102.5-45.98,102.5-102.5,102.5Z"/>
    <path class="cls-1" d="M441,744.58c56.24,0,102,45.76,102,102s-45.76,102-102,102-102-45.76-102-102,45.76-102,102-102M441,743.58c-56.89,0-103,46.11-103,103s46.11,103,103,103,103-46.11,103-103-46.11-103-103-103h0Z"/>
  </g>
  <g>
    <path d="M786,654.08c-37.29,0-73.16-13.74-100.99-38.68-27.62-24.76-45.19-58.52-49.48-95.07-.96-8.2-6.7-14.99-14.62-17.3-1.87-.54-3.8-.82-5.73-.82-6.19,0-11.98,2.75-15.89,7.55-8.45,10.37-20.92,16.31-34.22,16.31-24.34,0-44.13-19.8-44.13-44.13,0-5.39.96-10.66,2.86-15.64,2.62-6.88,1.34-14.68-3.35-20.35-3.91-4.73-9.67-7.45-15.8-7.45-1.18,0-2.38.1-3.55.31-4.78.84-9.69,1.27-14.58,1.27-46.32,0-84-37.68-84-84s37.68-84,84-84,84,37.68,84,84c0,17.89-5.57,34.97-16.11,49.41-4.35,5.95-5.16,13.82-2.12,20.54,3.04,6.72,9.49,11.3,16.83,11.97,14.67,1.33,27.67,9.91,34.77,22.94,3.59,6.6,10.49,10.69,18,10.69.66,0,1.33-.03,2-.1,8.2-.8,15.1-6.4,17.57-14.26,9.46-30.1,28.69-57.15,54.15-76.16,26.31-19.65,57.58-30.03,90.43-30.03,83.54,0,151.5,67.96,151.5,151.5s-67.96,151.5-151.5,151.5Z"/>
    <path class="cls-1" d="M486.5,272.58c46.04,0,83.5,37.46,83.5,83.5,0,17.78-5.54,34.76-16.02,49.11-4.45,6.1-5.29,14.16-2.17,21.04,3.11,6.88,9.72,11.58,17.24,12.26,14.5,1.32,27.35,9.79,34.37,22.68,3.68,6.76,10.74,10.95,18.43,10.95.68,0,1.37-.03,2.04-.1,8.4-.82,15.47-6.55,18-14.61,9.42-30,28.59-56.96,53.97-75.91,26.22-19.58,57.39-29.93,90.13-29.93,83.26,0,151,67.74,151,151s-67.74,151-151,151c-37.17,0-72.92-13.69-100.66-38.55-27.53-24.67-45.04-58.33-49.31-94.75-.98-8.4-6.86-15.35-14.98-17.72-1.91-.56-3.89-.84-5.87-.84-6.34,0-12.27,2.82-16.28,7.73-8.35,10.25-20.69,16.13-33.84,16.13-24.06,0-43.63-19.57-43.63-43.63,0-5.33.95-10.54,2.83-15.46,2.68-7.05,1.37-15.03-3.43-20.85-4-4.85-9.9-7.63-16.19-7.63-1.21,0-2.44.11-3.63.32-4.75.83-9.63,1.26-14.5,1.26-46.04,0-83.5-37.46-83.5-83.5s37.46-83.5,83.5-83.5M486.5,271.58c-46.59,0-84.5,37.91-84.5,84.5s37.91,84.5,84.5,84.5c4.92,0,9.86-.43,14.67-1.27,1.16-.2,2.31-.3,3.46-.3,5.91,0,11.58,2.62,15.42,7.26,4.58,5.55,5.83,13.13,3.27,19.85-1.92,5.04-2.89,10.37-2.89,15.82,0,24.61,20.02,44.63,44.63,44.63,13.45,0,26.07-6.01,34.61-16.5,3.86-4.74,9.59-7.36,15.5-7.36,1.86,0,3.75.26,5.59.8,7.71,2.25,13.33,8.89,14.27,16.87,4.3,36.67,21.93,70.54,49.64,95.38,27.92,25.02,63.91,38.8,101.33,38.8,83.81,0,152-68.19,152-152s-68.19-152-152-152c-32.96,0-64.33,10.42-90.73,30.13-25.55,19.08-44.84,46.21-54.33,76.41-2.41,7.66-9.15,13.13-17.14,13.91-.65.06-1.3.09-1.95.09-7.27,0-14.03-3.96-17.56-10.43-7.18-13.18-20.33-21.85-35.16-23.2-7.18-.65-13.45-5.11-16.42-11.68-2.97-6.57-2.18-14.22,2.07-20.04,10.6-14.52,16.21-31.71,16.21-49.7,0-46.59-37.91-84.5-84.5-84.5h0Z"/>
  </g>
  <g>
    <path d="M819.42,277.45c-23.84,0-43.21-18.64-44.1-42.44-.3-7.84-4.93-14.72-12.09-17.93-2.66-1.19-5.48-1.8-8.4-1.8-4.74,0-9.37,1.66-13.04,4.68-14.98,12.34-33.91,19.13-53.3,19.13-25.43,0-49.23-11.39-65.31-31.24-3.91-4.83-9.72-7.6-15.93-7.6-1.64,0-3.27.2-4.87.59-7.67,1.88-13.64,8.08-15.22,15.82-4.17,20.46-22.36,35.3-43.25,35.3-24.34,0-44.13-19.8-44.13-44.13s19.8-44.13,44.13-44.13c10.03,0,19.49,3.3,27.36,9.54,3.61,2.86,8.13,4.44,12.74,4.44,3.14,0,6.28-.74,9.1-2.13,7.08-3.51,11.55-10.88,11.4-18.77-.01-.55-.02-1.11-.02-1.67,0-11.81,2.41-23.23,7.16-33.94,3.4-7.66,1.84-16.51-3.98-22.55-3.84-3.98-9.22-6.27-14.76-6.27-2.62,0-5.19.5-7.63,1.48-5.2,2.09-10.71,3.15-16.37,3.15-24.34,0-44.13-19.8-44.13-44.13s19.8-44.13,44.13-44.13,44.13,19.8,44.13,44.13c0,3.33-.37,6.65-1.11,9.86-1.87,8.17,1.35,16.56,8.22,21.37,3.46,2.43,7.53,3.71,11.76,3.71,3.96,0,7.8-1.13,11.12-3.28,13.55-8.76,29.27-13.39,45.44-13.39,46.32,0,84,37.68,84,84,0,5.46-.53,10.91-1.57,16.21-1.51,7.7,1.42,15.44,7.64,20.22,3.56,2.73,7.99,4.23,12.48,4.23,3.11,0,6.23-.72,9.03-2.1,6.05-2.97,12.55-4.47,19.34-4.47,24.34,0,44.13,19.8,44.13,44.13s-19.8,44.13-44.13,44.13Z"/>
    <path class="cls-1" d="M568.92,9.18c24.06,0,43.63,19.57,43.63,43.63,0,3.3-.37,6.58-1.09,9.75-1.92,8.37,1.39,16.96,8.42,21.89,3.55,2.49,7.72,3.8,12.05,3.8,4.05,0,7.99-1.16,11.4-3.36,13.47-8.71,29.09-13.31,45.17-13.31,46.04,0,83.5,37.46,83.5,83.5,0,5.42-.52,10.85-1.56,16.12-1.55,7.88,1.45,15.82,7.83,20.71,3.65,2.8,8.19,4.34,12.78,4.34,3.19,0,6.38-.74,9.25-2.15,5.98-2.93,12.41-4.42,19.12-4.42,24.06,0,43.63,19.57,43.63,43.63s-19.57,43.63-43.63,43.63-42.72-18.43-43.6-41.96c-.3-8.04-5.05-15.07-12.38-18.37-2.72-1.22-5.62-1.84-8.6-1.84-4.86,0-9.6,1.7-13.35,4.79-14.89,12.27-33.71,19.02-52.98,19.02-25.28,0-48.94-11.32-64.92-31.06-4.01-4.95-9.95-7.79-16.32-7.79-1.68,0-3.35.2-4.99.6-7.85,1.92-13.97,8.28-15.59,16.2-4.12,20.22-22.11,34.9-42.76,34.9-24.06,0-43.63-19.57-43.63-43.63s19.57-43.63,43.63-43.63c9.92,0,19.27,3.26,27.05,9.43,3.7,2.93,8.33,4.55,13.05,4.55,3.21,0,6.44-.75,9.32-2.18,7.25-3.59,11.83-11.14,11.67-19.23-.01-.55-.02-1.1-.02-1.66,0-11.74,2.4-23.09,7.12-33.74,3.48-7.85,1.88-16.92-4.08-23.1-3.94-4.08-9.45-6.42-15.12-6.42-2.69,0-5.32.51-7.82,1.51-5.14,2.06-10.58,3.11-16.18,3.11-24.06,0-43.63-19.57-43.63-43.63s19.57-43.63,43.63-43.63M568.92,8.18c-24.61,0-44.63,20.02-44.63,44.63s20.02,44.63,44.63,44.63c5.72,0,11.29-1.07,16.55-3.18,2.42-.97,4.94-1.44,7.45-1.44,5.33,0,10.55,2.13,14.4,6.12,5.65,5.86,7.19,14.56,3.89,22-4.78,10.77-7.21,22.26-7.21,34.14,0,.56,0,1.12.02,1.68.15,7.74-4.18,14.88-11.12,18.32-2.82,1.39-5.85,2.08-8.88,2.08-4.43,0-8.83-1.47-12.43-4.33-7.95-6.31-17.52-9.64-27.67-9.64-24.61,0-44.63,20.02-44.63,44.63s20.02,44.63,44.63,44.63c21.13,0,39.52-15.01,43.74-35.7,1.55-7.58,7.33-13.59,14.85-15.43,1.58-.39,3.17-.57,4.75-.57,5.95,0,11.69,2.66,15.54,7.41,16.17,19.97,40.12,31.43,65.7,31.43,19.5,0,38.55-6.84,53.62-19.25,3.65-3.01,8.16-4.56,12.72-4.56,2.77,0,5.57.58,8.19,1.76,6.94,3.12,11.51,9.89,11.79,17.49.9,24.07,20.5,42.93,44.6,42.93s44.63-20.02,44.63-44.63-20.02-44.63-44.63-44.63c-6.87,0-13.45,1.52-19.57,4.52-2.79,1.37-5.81,2.04-8.81,2.04-4.32,0-8.61-1.4-12.17-4.13-6.03-4.62-8.92-12.27-7.45-19.72,1.05-5.33,1.58-10.82,1.58-16.31,0-46.59-37.91-84.5-84.5-84.5-16.27,0-32.08,4.66-45.71,13.47-3.31,2.14-7.08,3.2-10.85,3.2-4.02,0-8.04-1.21-11.48-3.62-6.67-4.67-9.84-12.91-8.02-20.85.74-3.24,1.12-6.6,1.12-9.97,0-24.61-20.02-44.63-44.63-44.63h0Z"/>
  </g>
  <g>
    <path d="M637.14,909.95c-28.32,0-51.36-23.04-51.36-51.36s23.04-51.36,51.36-51.36,51.36,23.04,51.36,51.36-23.04,51.36-51.36,51.36Z"/>
    <path class="cls-1" d="M637.14,807.74c28.04,0,50.86,22.81,50.86,50.86s-22.81,50.86-50.86,50.86-50.86-22.81-50.86-50.86,22.81-50.86,50.86-50.86M637.14,806.74c-28.64,0-51.86,23.22-51.86,51.86s23.22,51.86,51.86,51.86,51.86-23.22,51.86-51.86-23.22-51.86-51.86-51.86h0Z"/>
  </g>
  <g>
    <path d="M638.38,729.08c-20.3,0-36.81-16.51-36.81-36.81s16.51-36.81,36.81-36.81,36.81,16.51,36.81,36.81-16.51,36.81-36.81,36.81Z"/>
    <path class="cls-1" d="M638.38,655.96c20.02,0,36.31,16.29,36.31,36.31s-16.29,36.31-36.31,36.31-36.31-16.29-36.31-36.31,16.29-36.31,36.31-36.31M638.38,654.96c-20.61,0-37.31,16.71-37.31,37.31s16.71,37.31,37.31,37.31,37.31-16.71,37.31-37.31-16.71-37.31-37.31-37.31h0Z"/>
  </g>
  <g>
    <path d="M767.88,822.08c-33.81,0-61.31-27.5-61.31-61.31s27.5-61.31,61.31-61.31,61.31,27.5,61.31,61.31-27.5,61.31-61.31,61.31Z"/>
    <path class="cls-1" d="M767.88,699.96c33.53,0,60.81,27.28,60.81,60.81s-27.28,60.81-60.81,60.81-60.81-27.28-60.81-60.81,27.28-60.81,60.81-60.81M767.88,698.96c-34.14,0-61.81,27.67-61.81,61.81s27.67,61.81,61.81,61.81,61.81-27.67,61.81-61.81-27.67-61.81-61.81-61.81h0Z"/>
  </g>
  <g>
    <path d="M660.92,364.17c-28.32,0-51.36-23.04-51.36-51.36s23.04-51.36,51.36-51.36,51.36,23.04,51.36,51.36-23.04,51.36-51.36,51.36Z"/>
    <path class="cls-1" d="M660.92,261.96c28.04,0,50.86,22.81,50.86,50.86s-22.81,50.86-50.86,50.86-50.86-22.81-50.86-50.86,22.81-50.86,50.86-50.86M660.92,260.96c-28.64,0-51.86,23.22-51.86,51.86s23.22,51.86,51.86,51.86,51.86-23.22,51.86-51.86-23.22-51.86-51.86-51.86h0Z"/>
  </g>
  <g>
    <path d="M203.88,435.08c-14.51,0-26.31-11.8-26.31-26.31s11.8-26.31,26.31-26.31,26.31,11.8,26.31,26.31-11.8,26.31-26.31,26.31Z"/>
    <path class="cls-1" d="M203.88,382.96c14.23,0,25.81,11.58,25.81,25.81s-11.58,25.81-25.81,25.81-25.81-11.58-25.81-25.81,11.58-25.81,25.81-25.81M203.88,381.96c-14.81,0-26.81,12-26.81,26.81s12,26.81,26.81,26.81,26.81-12,26.81-26.81-12-26.81-26.81-26.81h0Z"/>
  </g>
  <g>
    <path d="M434.92,71.12c-19.47,0-35.31-15.84-35.31-35.31S415.45.5,434.92.5s35.31,15.84,35.31,35.31-15.84,35.31-35.31,35.31Z"/>
    <path class="cls-1" d="M434.92,1c19.2,0,34.81,15.62,34.81,34.81s-15.62,34.81-34.81,34.81-34.81-15.62-34.81-34.81S415.73,1,434.92,1M434.92,0c-19.78,0-35.81,16.03-35.81,35.81s16.03,35.81,35.81,35.81,35.81-16.03,35.81-35.81S454.7,0,434.92,0h0Z"/>
  </g>
  <g>
    <path d="M877.92,364.12c-19.47,0-35.31-15.84-35.31-35.31s15.84-35.31,35.31-35.31,35.31,15.84,35.31,35.31-15.84,35.31-35.31,35.31Z"/>
    <path class="cls-1" d="M877.92,294c19.2,0,34.81,15.62,34.81,34.81s-15.62,34.81-34.81,34.81-34.81-15.62-34.81-34.81,15.62-34.81,34.81-34.81M877.92,293c-19.78,0-35.81,16.03-35.81,35.81s16.03,35.81,35.81,35.81,35.81-16.03,35.81-35.81-16.03-35.81-35.81-35.81h0Z"/>
  </g>
  <g>
    <path d="M871.62,698.24c-9.99,0-18.12-8.13-18.12-18.12s8.13-18.12,18.12-18.12,18.12,8.13,18.12,18.12-8.13,18.12-18.12,18.12Z"/>
    <path class="cls-1" d="M871.62,662.5c9.71,0,17.62,7.9,17.62,17.62s-7.9,17.62-17.62,17.62-17.62-7.9-17.62-17.62,7.9-17.62,17.62-17.62M871.62,661.5c-10.28,0-18.62,8.34-18.62,18.62s8.34,18.62,18.62,18.62,18.62-8.34,18.62-18.62-8.34-18.62-18.62-18.62h0Z"/>
  </g>
  <g>
    <path class="cls-1" d="M482.92,858.93c-9.99,0-18.12-8.13-18.12-18.12s8.13-18.12,18.12-18.12,18.12,8.13,18.12,18.12-8.13,18.12-18.12,18.12Z"/>
    <path d="M482.92,823.19c9.71,0,17.62,7.9,17.62,17.62s-7.9,17.62-17.62,17.62-17.62-7.9-17.62-17.62,7.9-17.62,17.62-17.62M482.92,822.19c-10.28,0-18.62,8.34-18.62,18.62s8.34,18.62,18.62,18.62,18.62-8.34,18.62-18.62-8.34-18.62-18.62-18.62h0Z"/>
  </g>
  <g>
    <path d="M501.62,135.16c-9.99,0-18.12-8.13-18.12-18.12s8.13-18.12,18.12-18.12,18.12,8.13,18.12,18.12-8.13,18.12-18.12,18.12Z"/>
    <path class="cls-1" d="M501.62,99.43c9.71,0,17.62,7.9,17.62,17.62s-7.9,17.62-17.62,17.62-17.62-7.9-17.62-17.62,7.9-17.62,17.62-17.62M501.62,98.43c-10.28,0-18.62,8.34-18.62,18.62s8.34,18.62,18.62,18.62,18.62-8.34,18.62-18.62-8.34-18.62-18.62-18.62h0Z"/>
  </g>
  <g>
    <path d="M338.53,453.1c-19.3,0-35-15.7-35-35s15.7-35,35-35,35,15.7,35,35-15.7,35-35,35Z"/>
    <path class="cls-1" d="M338.53,383.6c19.02,0,34.5,15.48,34.5,34.5s-15.48,34.5-34.5,34.5-34.5-15.48-34.5-34.5,15.48-34.5,34.5-34.5M338.53,382.6c-19.61,0-35.5,15.89-35.5,35.5s15.89,35.5,35.5,35.5,35.5-15.89,35.5-35.5-15.89-35.5-35.5-35.5h0Z"/>
  </g>
</svg>