<svg width="325" height="117" viewBox="0 0 325 117" fill="none" xmlns="http://www.w3.org/2000/svg">
<g clip-path="url(#clip0_1737_114)">
<path d="M12.0762 79.7283C5.45085 79.7283 0.0613022 74.3119 0.0613022 67.6535C0.0613022 62.7681 2.96695 58.3916 7.46274 56.504C8.46317 56.0838 9.08108 55.0723 9.00016 53.9855C8.91924 52.8988 8.15912 51.9907 7.1072 51.7246C2.95837 50.676 0.0613022 46.9402 0.0613022 42.6414C0.0613022 37.4775 4.24078 33.2772 9.379 33.2772C11.1837 33.2772 12.9344 33.7984 14.4424 34.7841C14.8507 35.0515 15.3252 35.1932 15.8131 35.1932C16.3991 35.1932 16.9692 34.9862 17.4192 34.6104C18.2713 33.8994 18.5594 32.7302 18.1364 31.7013C17.2071 29.4441 16.7363 27.0513 16.7363 24.5907C16.7363 14.2976 25.0683 5.92407 35.3104 5.92407C45.5525 5.92407 53.8845 14.2976 53.8845 24.5907C53.8845 34.8839 45.5525 43.2574 35.3104 43.2574C30.5988 43.2574 26.103 41.4745 22.6506 38.2365C22.1835 37.7991 21.5741 37.5576 20.9354 37.5576C20.5002 37.5576 20.0698 37.6722 19.691 37.8891C18.7298 38.4398 18.2431 39.5401 18.4821 40.6256C18.6256 41.2836 18.6991 41.9612 18.6991 42.6414C18.6991 46.2096 16.7191 49.4217 13.5315 51.0235C12.5617 51.5114 12.0137 52.5636 12.1682 53.6418C12.3227 54.7211 13.1441 55.575 14.2107 55.7684C19.9362 56.8034 24.0924 61.8009 24.0924 67.6535C24.0924 74.3119 18.7028 79.7283 12.0775 79.7283H12.0762Z" fill="black"/>
<path d="M35.3092 5.98567C45.517 5.98567 53.822 14.3321 53.822 24.5907C53.822 34.8494 45.517 43.1958 35.3092 43.1958C30.6135 43.1958 26.1325 41.4179 22.691 38.1909C22.2129 37.7424 21.5889 37.4948 20.9342 37.4948C20.4879 37.4948 20.0478 37.6118 19.6591 37.8348C18.6746 38.3991 18.1769 39.5265 18.4208 40.6391C18.5643 41.2922 18.6366 41.9661 18.6366 42.6413C18.6366 46.1862 16.6701 49.3774 13.5033 50.9693C12.509 51.4683 11.9487 52.5464 12.1069 53.6516C12.265 54.7568 13.1061 55.6316 14.1997 55.83C19.897 56.8601 24.0311 61.8317 24.0311 67.6535C24.0311 74.2774 18.6685 79.6667 12.0775 79.6667C5.48641 79.6667 0.122601 74.2774 0.122601 67.6535C0.122601 62.7927 3.01231 58.4384 7.48603 56.5606C8.51098 56.1306 9.1436 55.0932 9.06146 53.9806C8.97809 52.868 8.19957 51.9365 7.12191 51.6642C3.00128 50.623 0.122601 46.9119 0.122601 42.6413C0.122601 37.512 4.27511 33.3388 9.379 33.3388C11.1714 33.3388 12.9111 33.8563 14.4093 34.8358C14.8286 35.1094 15.3141 35.2548 15.8131 35.2548C16.4126 35.2548 16.9974 35.0428 17.4584 34.6572C18.3313 33.929 18.6256 32.7314 18.1928 31.6779C17.2672 29.4281 16.7976 27.0439 16.7976 24.5907C16.7976 14.3321 25.1026 5.98567 35.3104 5.98567M35.3092 5.86246C25.034 5.86246 16.6738 14.2643 16.6738 24.5907C16.6738 27.0599 17.147 29.4601 18.0788 31.7247C18.4895 32.7228 18.2063 33.8723 17.38 34.5623C16.9288 34.9393 16.3722 35.1316 15.8131 35.1316C15.3497 35.1316 14.885 34.9997 14.4768 34.7323C12.959 33.7393 11.1959 33.2156 9.38022 33.2156C4.2089 33.2156 0.00122601 37.4443 0.00122601 42.6413C0.00122601 46.9686 2.91791 50.7278 7.09248 51.7837C8.1162 52.0425 8.86039 52.9308 8.93886 53.9892C9.01732 55.0476 8.4129 56.0382 7.43822 56.4473C2.92036 58.3448 0 62.7434 0 67.6535C0 74.3451 5.41775 79.7899 12.0762 79.7899C18.7347 79.7899 24.1525 74.3451 24.1525 67.6535C24.1525 61.7725 19.9754 56.7479 14.2193 55.708C13.1796 55.5207 12.3766 54.6841 12.2258 53.6331C12.075 52.5821 12.6108 51.5533 13.556 51.0777C16.7645 49.4648 18.7568 46.2318 18.7568 42.6401C18.7568 41.9563 18.6832 41.2737 18.5385 40.6108C18.3081 39.5573 18.7862 38.4755 19.718 37.9408C20.0968 37.7227 20.5161 37.6167 20.9317 37.6167C21.5386 37.6167 22.1393 37.8422 22.6052 38.2796C26.0699 41.5287 30.5804 43.3178 35.3067 43.3178C45.5819 43.3178 53.9421 34.9159 53.9421 24.5895C53.9421 14.2631 45.5844 5.86246 35.3092 5.86246Z" fill="black"/>
<path d="M26.1754 104.864C19.55 104.864 14.1604 99.4472 14.1604 92.7888C14.1604 86.1304 19.55 80.7139 26.1754 80.7139C26.2906 80.7139 26.4046 80.7152 26.5187 80.7189C26.5432 80.7189 26.5677 80.7189 26.591 80.7189C27.5203 80.7189 28.3699 80.2075 28.8076 79.3833C29.26 78.5319 29.195 77.5154 28.6384 76.7293C27.1868 74.6802 26.4206 72.2653 26.4206 69.748C26.4206 63.0897 31.8101 57.6732 38.4355 57.6732C41.4552 57.6732 44.3449 58.8093 46.5701 60.8706C48.7843 62.9221 50.1451 65.6981 50.4051 68.6897C50.4909 69.6778 51.148 70.5267 52.0786 70.8545C52.3458 70.9481 52.6254 70.9962 52.9086 70.9962C53.5939 70.9962 54.2584 70.7103 54.7304 70.2101C56.5928 68.2424 59.0999 67.1594 61.791 67.1594C67.1659 67.1594 71.5378 71.5531 71.5378 76.9547C71.5378 82.3564 67.1659 86.7501 61.791 86.7501C59.4714 86.7501 57.2217 85.9135 55.4575 84.3931C53.7104 82.8886 52.5445 80.815 52.173 78.554C52.0124 77.5757 51.2939 76.7798 50.3413 76.5247C50.1292 76.4681 49.9122 76.4397 49.694 76.4397C48.9363 76.4397 48.2264 76.7785 47.7471 77.3687C45.4483 80.1989 42.0547 81.8229 38.4355 81.8229C38.3203 81.8229 38.2062 81.8216 38.0922 81.8179C38.0677 81.8179 38.0432 81.8179 38.0199 81.8179C37.0906 81.8179 36.2409 82.3293 35.8032 83.1536C35.3509 84.0049 35.4158 85.0214 35.9724 85.8075C37.424 87.8566 38.1903 90.2715 38.1903 92.7888C38.1903 99.4472 32.8007 104.864 26.1754 104.864Z" fill="black"/>
<path d="M38.4355 57.7348C41.4405 57.7348 44.3142 58.8647 46.5284 60.9162C48.7316 62.9566 50.0863 65.719 50.3438 68.6958C50.4308 69.7074 51.1039 70.5785 52.0577 70.9136C52.3324 71.0097 52.618 71.059 52.9074 71.059C53.6099 71.059 54.2903 70.7658 54.7733 70.2545C56.6234 68.2991 59.1147 67.2222 61.7898 67.2222C67.1303 67.2222 71.4753 71.5888 71.4753 76.956C71.4753 82.3231 67.1303 86.6898 61.7898 86.6898C59.4849 86.6898 57.2499 85.8581 55.4967 84.3475C53.7607 82.8517 52.6021 80.7916 52.233 78.5454C52.0688 77.5437 51.3319 76.728 50.356 76.4668C50.139 76.4089 49.9159 76.3793 49.6927 76.3793C48.9167 76.3793 48.1897 76.7256 47.698 77.3305C45.4103 80.1459 42.0338 81.7613 38.4343 81.7613C38.3178 81.7613 38.2026 81.76 38.0922 81.7563C38.0677 81.7563 38.0432 81.7563 38.0187 81.7563C37.066 81.7563 36.1968 82.2812 35.7481 83.1252C35.2846 83.9976 35.3508 85.0387 35.9209 85.8445C37.364 87.8837 38.1278 90.2851 38.1278 92.79C38.1278 99.4139 32.7652 104.803 26.1741 104.803C19.5831 104.803 14.2205 99.4139 14.2205 92.79C14.2205 86.1661 19.5831 80.7768 26.1741 80.7768C26.2906 80.7768 26.4059 80.778 26.5162 80.7817C26.5407 80.7817 26.5652 80.7817 26.5898 80.7817C27.5424 80.7817 28.4116 80.2568 28.8603 79.4128C29.3238 78.5405 29.2576 77.4993 28.6875 76.6935C27.2445 74.6544 26.4806 72.253 26.4806 69.7481C26.4806 63.1242 31.8432 57.7348 38.4343 57.7348M38.4355 57.6116C31.777 57.6116 26.3593 63.0564 26.3593 69.7481C26.3593 72.2788 27.1304 74.7049 28.5882 76.765C29.1276 77.5265 29.1914 78.5294 28.7537 79.3549C28.327 80.1583 27.4946 80.6585 26.591 80.6585C26.5677 80.6585 26.5444 80.6585 26.5199 80.6585C26.4059 80.6548 26.2906 80.6536 26.1754 80.6536C19.5169 80.6536 14.0991 86.0983 14.0991 92.79C14.0991 99.4817 19.5169 104.926 26.1754 104.926C32.8338 104.926 38.2516 99.4817 38.2516 92.79C38.2516 90.2592 37.4804 87.8332 36.0227 85.7731C35.4833 85.0116 35.4195 84.0087 35.8572 83.1831C36.2838 82.3798 37.1163 81.8795 38.0199 81.8795C38.0432 81.8795 38.0665 81.8795 38.091 81.8795C38.205 81.8832 38.3203 81.8845 38.4355 81.8845C42.0731 81.8845 45.4838 80.2531 47.7949 77.4082C48.2669 76.8266 48.9694 76.5026 49.694 76.5026C49.9036 76.5026 50.1169 76.5297 50.3254 76.5863C51.2571 76.8365 51.956 77.6102 52.1129 78.5664C52.4856 80.8409 53.6589 82.9269 55.417 84.4424C57.1923 85.9714 59.4555 86.8142 61.7898 86.8142C67.1978 86.8142 71.5979 82.3921 71.5979 76.9572C71.5979 71.5223 67.1978 67.1002 61.7898 67.1002C59.0816 67.1002 56.5584 68.1906 54.6838 70.1707C54.2131 70.6685 53.5669 70.937 52.9061 70.937C52.6352 70.937 52.3618 70.8915 52.097 70.7991C51.1873 70.4787 50.5473 69.6519 50.4639 68.6872C50.204 65.6796 48.8345 62.8888 46.6093 60.8275C44.3719 58.755 41.4687 57.6141 38.433 57.6141L38.4355 57.6116Z" fill="black"/>
<path d="M54.0672 116.938C47.1377 116.938 41.5005 111.273 41.5005 104.309C41.5005 97.3452 47.1377 91.6799 54.0672 91.6799C60.9966 91.6799 66.6338 97.3452 66.6338 104.309C66.6338 111.273 60.9966 116.938 54.0672 116.938Z" fill="black"/>
<path d="M54.0672 91.7415C60.9623 91.7415 66.5725 97.3797 66.5725 104.309C66.5725 111.239 60.9623 116.877 54.0672 116.877C47.1721 116.877 41.5618 111.239 41.5618 104.309C41.5618 97.3797 47.1721 91.7415 54.0672 91.7415ZM54.0672 91.6183C47.0924 91.6183 41.4392 97.2996 41.4392 104.309C41.4392 111.319 47.0924 117 54.0672 117C61.042 117 66.6951 111.319 66.6951 104.309C66.6951 97.2996 61.042 91.6183 54.0672 91.6183Z" fill="black"/>
<path d="M96.3646 80.5907C91.7928 80.5907 87.3951 78.8978 83.9831 75.8249C80.5968 72.7742 78.4427 68.6145 77.9168 64.1111C77.7991 63.1008 77.0954 62.2641 76.1243 61.9795C75.8951 61.913 75.6585 61.8785 75.4218 61.8785C74.6629 61.8785 73.9531 62.2173 73.4737 62.8087C72.4377 64.0865 70.9089 64.8183 69.2783 64.8183C66.2942 64.8183 63.8679 62.3787 63.8679 59.381C63.8679 58.7169 63.9856 58.0675 64.2185 57.4539C64.5398 56.6062 64.3828 55.6452 63.8078 54.9466C63.3285 54.3638 62.6223 54.0286 61.8707 54.0286C61.7261 54.0286 61.5789 54.0409 61.4355 54.0668C60.8495 54.1703 60.2475 54.2233 59.648 54.2233C53.9691 54.2233 49.3495 49.5807 49.3495 43.8735C49.3495 38.1663 53.9691 33.5236 59.648 33.5236C65.3269 33.5236 69.9465 38.1663 69.9465 43.8735C69.9465 46.0777 69.2636 48.1822 67.9714 49.9614C67.438 50.6945 67.3387 51.6642 67.7114 52.4922C68.0842 53.3202 68.8749 53.8845 69.7748 53.967C71.5734 54.1309 73.1672 55.1881 74.0377 56.7935C74.4778 57.6067 75.3238 58.1107 76.2445 58.1107C76.3254 58.1107 76.4076 58.107 76.4897 58.0983C77.495 57.9998 78.341 57.3098 78.6438 56.3413C79.8036 52.6326 82.1612 49.2997 85.2827 46.9575C88.5083 44.5363 92.342 43.2574 96.3695 43.2574C106.612 43.2574 114.944 51.6309 114.944 61.9241C114.944 72.2172 106.612 80.5907 96.3695 80.5907H96.3646Z" fill="black"/>
<path d="M59.6455 33.5852C65.2901 33.5852 69.8827 38.2008 69.8827 43.8735C69.8827 46.0642 69.2035 48.1563 67.9186 49.9244C67.3731 50.676 67.2701 51.6691 67.6526 52.5168C68.0339 53.3645 68.8443 53.9436 69.7662 54.0274C71.544 54.19 73.1194 55.2336 73.9801 56.8218C74.4312 57.6548 75.2968 58.171 76.2396 58.171C76.323 58.171 76.4076 58.1673 76.4897 58.1587C77.5196 58.0577 78.3863 57.3517 78.6965 56.3586C79.8514 52.6622 82.2017 49.3404 85.3133 47.0055C88.5279 44.593 92.3494 43.3178 96.3634 43.3178C106.571 43.3178 114.876 51.6642 114.876 61.9228C114.876 72.1815 106.571 80.5279 96.3634 80.5279C91.8063 80.5279 87.4233 78.8411 84.0223 75.7781C80.6471 72.7384 78.5004 68.5911 77.9769 64.1037C77.8567 63.0687 77.1358 62.2124 76.1403 61.9204C75.9061 61.8514 75.6634 61.8169 75.4206 61.8169C74.6433 61.8169 73.9163 62.1643 73.4247 62.7693C72.401 64.0322 70.8881 64.7567 69.2758 64.7567C66.3261 64.7567 63.9267 62.3455 63.9267 59.381C63.9267 58.7242 64.0432 58.0823 64.2737 57.4761C64.6023 56.6075 64.4417 55.6242 63.8532 54.9071C63.3628 54.3095 62.6394 53.967 61.8683 53.967C61.7199 53.967 61.5691 53.9806 61.4232 54.0064C60.8409 54.1087 60.2426 54.1617 59.6455 54.1617C54.001 54.1617 49.4083 49.5462 49.4083 43.8735C49.4083 38.2008 54.001 33.5852 59.6455 33.5852ZM59.6455 33.462C53.9335 33.462 49.2857 38.133 49.2857 43.8735C49.2857 49.6139 53.9335 54.2849 59.6455 54.2849C60.2487 54.2849 60.8544 54.2319 61.4441 54.1284C61.5863 54.1038 61.7273 54.0915 61.8683 54.0915C62.5928 54.0915 63.288 54.4143 63.7588 54.986C64.3203 55.6698 64.4736 56.6038 64.1597 57.4317C63.9243 58.0527 63.8054 58.7095 63.8054 59.381C63.8054 62.4132 66.2599 64.8799 69.2771 64.8799C70.9261 64.8799 72.4733 64.1394 73.5203 62.8469C73.9935 62.2629 74.696 61.9401 75.4206 61.9401C75.6487 61.9401 75.8804 61.9721 76.106 62.0387C77.0512 62.3159 77.7402 63.134 77.8555 64.1172C78.3827 68.6354 80.5441 72.8087 83.9414 75.8692C87.3644 78.952 91.7769 80.6499 96.3646 80.6499C106.64 80.6499 115 72.248 115 61.9216C115 51.5952 106.64 43.1933 96.3646 43.1933C92.3237 43.1933 88.4777 44.4772 85.241 46.9057C82.1085 49.2566 79.7435 52.5994 78.5801 56.3204C78.2846 57.2642 77.4583 57.9381 76.4787 58.0343C76.399 58.0416 76.3193 58.0453 76.2396 58.0453C75.3483 58.0453 74.5195 57.5574 74.0867 56.7602C73.2064 55.1363 71.5942 54.068 69.7761 53.9017C68.8958 53.8216 68.1271 53.2721 67.7629 52.4626C67.3988 51.6531 67.4957 50.7105 68.0167 49.9934C69.3163 48.2044 70.0041 46.0863 70.0041 43.8698C70.0041 38.1293 65.3563 33.4583 59.6443 33.4583L59.6455 33.462Z" fill="black"/>
<path d="M100.462 34.1853C97.5391 34.1853 95.1643 31.8886 95.0552 28.9561C95.0184 27.9901 94.4508 27.1424 93.573 26.7469C93.2469 26.6003 92.9011 26.5251 92.5431 26.5251C91.962 26.5251 91.3943 26.7297 90.9444 27.1018C89.1078 28.6222 86.787 29.4588 84.4098 29.4588C81.292 29.4588 78.3741 28.0554 76.4027 25.6097C75.9233 25.0146 75.211 24.6733 74.4496 24.6733C74.2486 24.6733 74.0487 24.6979 73.8526 24.746C72.9122 24.9776 72.1803 25.7415 71.9866 26.6952C71.4753 29.2161 69.2452 31.0446 66.6841 31.0446C63.6999 31.0446 61.2737 28.605 61.2737 25.6072C61.2737 22.6095 63.7012 20.1699 66.6841 20.1699C67.9137 20.1699 69.0736 20.5765 70.0384 21.3453C70.481 21.6977 71.0352 21.8924 71.6004 21.8924C71.9853 21.8924 72.3703 21.8012 72.716 21.6299C73.5841 21.1974 74.1321 20.2894 74.1137 19.3172C74.1125 19.2495 74.1112 19.1805 74.1112 19.1115C74.1112 17.6563 74.4067 16.2492 74.9891 14.9296C75.4059 13.9858 75.2147 12.8954 74.5011 12.1512C74.0303 11.6608 73.3707 11.3787 72.6915 11.3787C72.3703 11.3787 72.0552 11.4403 71.7561 11.561C71.1186 11.8185 70.443 11.9491 69.7491 11.9491C66.765 11.9491 64.3387 9.50952 64.3387 6.51176C64.3387 3.51401 66.7662 1.0744 69.7491 1.0744C72.732 1.0744 75.1595 3.51401 75.1595 6.51176C75.1595 6.92206 75.1141 7.33113 75.0234 7.72664C74.7941 8.73328 75.1889 9.76703 76.0312 10.3597C76.4554 10.6591 76.9544 10.8168 77.473 10.8168C77.9585 10.8168 78.4293 10.6776 78.8363 10.4127C80.4976 9.33333 82.4248 8.76285 84.4073 8.76285C90.0862 8.76285 94.7058 13.4055 94.7058 19.1127C94.7058 19.7854 94.6408 20.4569 94.5133 21.11C94.3282 22.0587 94.6874 23.0124 95.45 23.6013C95.8865 23.9377 96.4296 24.1225 96.9801 24.1225C97.3614 24.1225 97.7439 24.0338 98.0872 23.8638C98.8289 23.4978 99.6258 23.313 100.458 23.313C103.442 23.313 105.869 25.7526 105.869 28.7504C105.869 31.7481 103.441 34.1877 100.458 34.1877L100.462 34.1853Z" fill="black"/>
<path d="M69.7503 1.13109C72.7001 1.13109 75.0994 3.54235 75.0994 6.50684C75.0994 6.91344 75.0541 7.31758 74.9658 7.70816C74.7304 8.73945 75.1362 9.79784 75.9981 10.4053C76.4333 10.7121 76.9446 10.8735 77.4754 10.8735C77.972 10.8735 78.455 10.7306 78.8731 10.4595C80.5245 9.38631 82.4396 8.81954 84.411 8.81954C90.0555 8.81954 94.6482 13.4351 94.6482 19.1078C94.6482 19.7756 94.5844 20.4446 94.4569 21.094C94.2669 22.0649 94.6347 23.0432 95.4169 23.6457C95.8644 23.9907 96.421 24.1804 96.9837 24.1804C97.3748 24.1804 97.7659 24.0892 98.1178 23.9155C98.851 23.5545 99.6393 23.3709 100.462 23.3709C103.412 23.3709 105.811 25.7822 105.811 28.7467C105.811 31.7112 103.412 34.1224 100.462 34.1224C97.5121 34.1224 95.2244 31.8516 95.1165 28.9524C95.0797 27.9618 94.4974 27.0956 93.5987 26.689C93.2652 26.5387 92.9097 26.4623 92.5444 26.4623C91.9485 26.4623 91.3674 26.6718 90.9076 27.0525C89.0821 28.5643 86.7747 29.396 84.4122 29.396C81.3128 29.396 78.4121 28.0012 76.4529 25.569C75.9613 24.9591 75.2331 24.6092 74.4521 24.6092C74.2461 24.6092 74.0414 24.6338 73.8403 24.6831C72.8779 24.9197 72.1276 25.7033 71.9289 26.6792C71.4238 29.1705 69.2182 30.9793 66.6865 30.9793C63.7367 30.9793 61.3374 28.568 61.3374 25.6035C61.3374 22.639 63.7367 20.2278 66.6865 20.2278C67.9027 20.2278 69.049 20.6294 70.0029 21.3897C70.4565 21.7507 71.0241 21.9503 71.6028 21.9503C71.9964 21.9503 72.3924 21.8579 72.7455 21.6817C73.6343 21.2393 74.1958 20.3091 74.1762 19.3123C74.175 19.2445 74.1738 19.1768 74.1738 19.1078C74.1738 17.6613 74.468 16.2628 75.0467 14.9506C75.4733 13.9834 75.2772 12.8658 74.5465 12.1044C74.0634 11.6017 73.3879 11.3134 72.6927 11.3134C72.3629 11.3134 72.0405 11.3762 71.734 11.4994C71.1038 11.7532 70.4369 11.8826 69.7503 11.8826C66.8005 11.8826 64.4012 9.47133 64.4012 6.50684C64.4012 3.54235 66.8005 1.13109 69.7503 1.13109ZM69.7503 1.00787C66.7331 1.00787 64.2786 3.47459 64.2786 6.50684C64.2786 9.5391 66.7331 12.0058 69.7503 12.0058C70.4516 12.0058 71.1345 11.874 71.7794 11.614C72.0761 11.4945 72.385 11.4366 72.6927 11.4366C73.3462 11.4366 73.9862 11.699 74.4582 12.1906C75.1509 12.9127 75.3397 13.9846 74.9351 14.9013C74.3491 16.2283 74.0512 17.644 74.0512 19.1078C74.0512 19.1768 74.0512 19.2458 74.0536 19.3148C74.072 20.2684 73.5412 21.1482 72.6903 21.572C72.3446 21.7433 71.9731 21.8283 71.6016 21.8283C71.0585 21.8283 70.519 21.6472 70.0777 21.2948C69.103 20.5173 67.9297 20.107 66.6853 20.107C63.6681 20.107 61.2136 22.5737 61.2136 25.606C61.2136 28.6382 63.6681 31.105 66.6853 31.105C69.2758 31.105 71.5305 29.2555 72.0479 26.7063C72.2379 25.7723 72.9465 25.0318 73.8685 24.8051C74.0622 24.7571 74.2571 24.7349 74.4509 24.7349C75.1803 24.7349 75.8841 25.0626 76.3561 25.6479C78.3385 28.1084 81.2748 29.5204 84.411 29.5204C86.8017 29.5204 89.1373 28.6777 90.9849 27.1486C91.4324 26.7777 91.9853 26.5868 92.5444 26.5868C92.884 26.5868 93.2272 26.6582 93.5485 26.8036C94.3993 27.188 94.9596 28.0222 94.9939 28.9586C95.1043 31.9243 97.5072 34.2481 100.462 34.2481C103.417 34.2481 105.934 31.7814 105.934 28.7491C105.934 25.7169 103.479 23.2502 100.462 23.2502C99.6197 23.2502 98.813 23.4375 98.0626 23.8071C97.7206 23.9759 97.3503 24.0584 96.9825 24.0584C96.4529 24.0584 95.9269 23.8859 95.4905 23.5496C94.7512 22.9803 94.3969 22.0378 94.5771 21.1198C94.7058 20.4631 94.7708 19.7867 94.7708 19.1102C94.7708 13.3698 90.123 8.69879 84.411 8.69879C82.4163 8.69879 80.4779 9.27296 78.8069 10.3585C78.4011 10.6221 77.9389 10.7527 77.4767 10.7527C76.9838 10.7527 76.4909 10.6037 76.0692 10.3067C75.2514 9.73131 74.8628 8.71604 75.0859 7.73773C75.1767 7.33852 75.2232 6.92453 75.2232 6.50931C75.2232 3.47705 72.7688 1.01034 69.7515 1.01034L69.7503 1.00787Z" fill="black"/>
<path d="M78.1142 112.117C74.6421 112.117 71.8174 109.278 71.8174 105.789C71.8174 102.3 74.6421 99.4607 78.1142 99.4607C81.5862 99.4607 84.411 102.3 84.411 105.789C84.411 109.278 81.5862 112.117 78.1142 112.117Z" fill="black"/>
<path d="M78.1142 99.5236C81.5519 99.5236 84.3497 102.334 84.3497 105.79C84.3497 109.246 81.5531 112.057 78.1142 112.057C74.6752 112.057 71.8787 109.246 71.8787 105.79C71.8787 102.334 74.6752 99.5236 78.1142 99.5236ZM78.1142 99.4003C74.6029 99.4003 71.7561 102.261 71.7561 105.79C71.7561 109.319 74.6029 112.18 78.1142 112.18C81.6255 112.18 84.4723 109.319 84.4723 105.79C84.4723 102.261 81.6255 99.4003 78.1142 99.4003Z" fill="black"/>
<path d="M78.2662 89.8317C75.7774 89.8317 73.7533 87.7974 73.7533 85.2962C73.7533 82.795 75.7774 80.7608 78.2662 80.7608C80.755 80.7608 82.7792 82.795 82.7792 85.2962C82.7792 87.7974 80.755 89.8317 78.2662 89.8317Z" fill="black"/>
<path d="M78.2662 80.8224C80.7207 80.8224 82.7179 82.8295 82.7179 85.2962C82.7179 87.7629 80.7207 89.7701 78.2662 89.7701C75.8117 89.7701 73.8146 87.7629 73.8146 85.2962C73.8146 82.8295 75.8117 80.8224 78.2662 80.8224ZM78.2662 80.6992C75.7394 80.6992 73.692 82.7581 73.692 85.2962C73.692 87.8344 75.7406 89.8933 78.2662 89.8933C80.7918 89.8933 82.8405 87.8344 82.8405 85.2962C82.8405 82.7581 80.7918 80.6992 78.2662 80.6992Z" fill="black"/>
<path d="M94.1431 101.29C89.9979 101.29 86.6264 97.9021 86.6264 93.7363C86.6264 89.5705 89.9979 86.1821 94.1431 86.1821C98.2882 86.1821 101.66 89.5705 101.66 93.7363C101.66 97.9021 98.2882 101.29 94.1431 101.29Z" fill="black"/>
<path d="M94.1431 86.2437C98.2539 86.2437 101.598 89.605 101.598 93.7363C101.598 97.8676 98.2539 101.229 94.1431 101.229C90.0323 101.229 86.6877 97.8676 86.6877 93.7363C86.6877 89.605 90.0323 86.2437 94.1431 86.2437ZM94.1431 86.1205C89.9575 86.1205 86.5651 89.5298 86.5651 93.7363C86.5651 97.9427 89.9575 101.352 94.1431 101.352C98.3287 101.352 101.721 97.9427 101.721 93.7363C101.721 89.5298 98.3287 86.1205 94.1431 86.1205Z" fill="black"/>
<path d="M81.0296 44.8702C77.5576 44.8702 74.7328 42.0314 74.7328 38.5421C74.7328 35.0527 77.5576 32.2139 81.0296 32.2139C84.5017 32.2139 87.3265 35.0527 87.3265 38.5421C87.3265 42.0314 84.5017 44.8702 81.0296 44.8702Z" fill="black"/>
<path d="M81.0296 32.2767C84.4674 32.2767 87.2651 35.0872 87.2651 38.5433C87.2651 41.9994 84.4686 44.8099 81.0296 44.8099C77.5907 44.8099 74.7941 41.9994 74.7941 38.5433C74.7941 35.0872 77.5907 32.2767 81.0296 32.2767ZM81.0296 32.1535C77.5183 32.1535 74.6715 35.0145 74.6715 38.5433C74.6715 42.0721 77.5183 44.9331 81.0296 44.9331C84.5409 44.9331 87.3877 42.0721 87.3877 38.5433C87.3877 35.0145 84.5409 32.1535 81.0296 32.1535Z" fill="black"/>
<path d="M24.9959 53.6072C23.217 53.6072 21.7703 52.1533 21.7703 50.3655C21.7703 48.5777 23.217 47.1238 24.9959 47.1238C26.7749 47.1238 28.2216 48.5777 28.2216 50.3655C28.2216 52.1533 26.7749 53.6072 24.9959 53.6072Z" fill="black"/>
<path d="M24.9959 47.1854C26.7406 47.1854 28.1603 48.6122 28.1603 50.3655C28.1603 52.1188 26.7406 53.5456 24.9959 53.5456C23.2513 53.5456 21.8316 52.1188 21.8316 50.3655C21.8316 48.6122 23.2513 47.1854 24.9959 47.1854ZM24.9959 47.0622C23.1802 47.0622 21.709 48.5407 21.709 50.3655C21.709 52.1903 23.1802 53.6688 24.9959 53.6688C26.8117 53.6688 28.2829 52.1903 28.2829 50.3655C28.2829 48.5407 26.8117 47.0622 24.9959 47.0622Z" fill="black"/>
<path d="M53.3217 8.7641C50.9347 8.7641 48.9927 6.81242 48.9927 4.41348C48.9927 2.01453 50.9347 0.061615 53.3217 0.061615C55.7088 0.061615 57.6508 2.0133 57.6508 4.41224C57.6508 6.81119 55.7088 8.76287 53.3217 8.76287V8.7641Z" fill="black"/>
<path d="M53.3218 0.123212C55.6757 0.123212 57.5895 2.04779 57.5895 4.41223C57.5895 6.77668 55.6745 8.70126 53.3218 8.70126C50.969 8.70126 49.054 6.77668 49.054 4.41223C49.054 2.04779 50.969 0.123212 53.3218 0.123212ZM53.3218 0C50.8967 0 48.9314 1.97509 48.9314 4.41223C48.9314 6.84938 50.8967 8.82447 53.3218 8.82447C55.7468 8.82447 57.7121 6.84938 57.7121 4.41223C57.7121 1.97509 55.7468 0 53.3218 0Z" fill="black"/>
<path d="M107.634 44.8653C105.247 44.8653 103.305 42.9136 103.305 40.5147C103.305 38.1157 105.247 36.1641 107.634 36.1641C110.021 36.1641 111.963 38.1157 111.963 40.5147C111.963 42.9136 110.021 44.8653 107.634 44.8653Z" fill="black"/>
<path d="M107.634 36.2244C109.988 36.2244 111.902 38.149 111.902 40.5135C111.902 42.8779 109.987 44.8025 107.634 44.8025C105.281 44.8025 103.366 42.8779 103.366 40.5135C103.366 38.149 105.281 36.2244 107.634 36.2244ZM107.634 36.1012C105.209 36.1012 103.244 38.0763 103.244 40.5135C103.244 42.9506 105.209 44.9257 107.634 44.9257C110.059 44.9257 112.024 42.9506 112.024 40.5135C112.024 38.0763 110.059 36.1012 107.634 36.1012Z" fill="black"/>
<path d="M106.862 86.0318C105.637 86.0318 104.64 85.0301 104.64 83.7992C104.64 82.5683 105.637 81.5666 106.862 81.5666C108.087 81.5666 109.083 82.5683 109.083 83.7992C109.083 85.0301 108.087 86.0318 106.862 86.0318Z" fill="black"/>
<path d="M106.862 81.6282C108.052 81.6282 109.022 82.6016 109.022 83.7992C109.022 84.9968 108.053 85.9702 106.862 85.9702C105.67 85.9702 104.701 84.9968 104.701 83.7992C104.701 82.6016 105.67 81.6282 106.862 81.6282ZM106.862 81.505C105.601 81.505 104.579 82.5326 104.579 83.7992C104.579 85.0658 105.601 86.0934 106.862 86.0934C108.122 86.0934 109.145 85.0658 109.145 83.7992C109.145 82.5326 108.122 81.505 106.862 81.505Z" fill="black"/>
<path d="M61.4992 16.6534C60.2745 16.6534 59.2777 15.6517 59.2777 14.4208C59.2777 13.1899 60.2745 12.1882 61.4992 12.1882C62.724 12.1882 63.7208 13.1899 63.7208 14.4208C63.7208 15.6517 62.724 16.6534 61.4992 16.6534Z" fill="black"/>
<path d="M61.4993 12.251C62.6897 12.251 63.6595 13.2244 63.6595 14.422C63.6595 15.6196 62.6909 16.593 61.4993 16.593C60.3076 16.593 59.339 15.6196 59.339 14.422C59.339 13.2244 60.3076 12.251 61.4993 12.251ZM61.4993 12.1278C60.2389 12.1278 59.2164 13.1554 59.2164 14.422C59.2164 15.6886 60.2389 16.7162 61.4993 16.7162C62.7596 16.7162 63.7821 15.6886 63.7821 14.422C63.7821 13.1554 62.7596 12.1278 61.4993 12.1278Z" fill="black"/>
<path d="M41.5042 55.8275C39.138 55.8275 37.2132 53.8931 37.2132 51.5151C37.2132 49.1371 39.138 47.2027 41.5042 47.2027C43.8704 47.2027 45.7953 49.1371 45.7953 51.5151C45.7953 53.8931 43.8704 55.8275 41.5042 55.8275Z" fill="black"/>
<path d="M41.5042 47.2643C43.8361 47.2643 45.734 49.1716 45.734 51.5151C45.734 53.8586 43.8361 55.7659 41.5042 55.7659C39.1723 55.7659 37.2745 53.8586 37.2745 51.5151C37.2745 49.1716 39.1723 47.2643 41.5042 47.2643ZM41.5042 47.1411C39.1 47.1411 37.1519 49.0989 37.1519 51.5151C37.1519 53.9313 39.1 55.8891 41.5042 55.8891C43.9084 55.8891 45.8566 53.9313 45.8566 51.5151C45.8566 49.0989 43.9084 47.1411 41.5042 47.1411Z" fill="black"/>
</g>
<path d="M300.597 80C299.904 80 299.557 79.7312 299.557 79.1936V66.6129L288.416 58C288.222 57.828 288.097 57.6774 288.042 57.5484C288.014 57.3978 288 57.2258 288 57.0323V37.8065C288 37.2688 288.346 37 289.039 37H300.804C301.497 37 301.844 37.2688 301.844 37.8065V57.3226H311.156V37.8065C311.156 37.2688 311.503 37 312.196 37H323.961C324.654 37 325 37.2688 325 37.8065V57.0323C325 57.2258 324.986 57.3978 324.958 57.5484C324.931 57.6774 324.806 57.828 324.584 58L313.484 66.6129V79.1936C313.484 79.7312 313.138 80 312.445 80H300.597Z" fill="black"/>
<path d="M252.019 80C251.34 80 251 79.7312 251 79.1936V37.8065C251 37.2688 251.34 37 252.019 37H276.563C277.188 37 277.732 37.172 278.194 37.5161L286.348 43.9677C286.783 44.3333 287 44.7634 287 45.2581V52.0323C287 52.2473 286.946 52.4194 286.837 52.5484C286.728 52.6774 286.565 52.828 286.348 53L279.947 57.5161L279.335 58.7097L279.947 59.5806L286.348 64.0968C286.565 64.2688 286.728 64.4194 286.837 64.5484C286.946 64.6559 287 64.828 287 65.0645V71.7097C287 72.2258 286.783 72.6559 286.348 73L278.194 79.4516C277.732 79.8172 277.188 80 276.563 80H252.019ZM268.246 72.7419C270.502 72.7419 272.037 72.3871 272.853 71.6774C273.695 70.9677 274.117 69.6237 274.117 67.6452C274.117 65.6452 273.695 64.2903 272.853 63.5806C272.037 62.871 270.502 62.5161 268.246 62.5161C266.017 62.5161 264.481 62.871 263.639 63.5806C262.823 64.2903 262.416 65.6452 262.416 67.6452C262.416 69.6237 262.823 70.9677 263.639 71.6774C264.481 72.3871 266.017 72.7419 268.246 72.7419ZM268.246 54.4516C270.502 54.4516 272.037 54.0968 272.853 53.3871C273.695 52.6774 274.117 51.3333 274.117 49.3548C274.117 47.3763 273.695 46.0323 272.853 45.3226C272.037 44.6129 270.502 44.2581 268.246 44.2581C266.017 44.2581 264.481 44.6129 263.639 45.3226C262.823 46.0323 262.416 47.3763 262.416 49.3548C262.416 51.3333 262.823 52.6774 263.639 53.3871C264.481 54.0968 266.017 54.4516 268.246 54.4516Z" fill="black"/>
<path d="M222.484 80C221.859 80 221.315 79.8172 220.852 79.4516L212.693 73C212.231 72.6559 212 72.2258 212 71.7097V45.2581C212 44.7634 212.231 44.3333 212.693 43.9677L220.852 37.5161C221.315 37.172 221.859 37 222.484 37H238.516C239.169 37 239.713 37.172 240.148 37.5161L248.306 43.9677C248.769 44.3333 249 44.7634 249 45.2581V71.7097C249 72.2258 248.769 72.6559 248.306 73L240.148 79.4516C239.713 79.8172 239.169 80 238.516 80H222.484ZM227.298 71.3871H233.702C234.845 71.3871 235.416 70.785 235.416 69.5807V47.4194C235.416 46.1936 234.845 45.5806 233.702 45.5806H227.298C226.183 45.5806 225.625 46.1936 225.625 47.4194V69.5807C225.625 70.785 226.183 71.3871 227.298 71.3871Z" fill="black"/>
<path d="M176.032 80C175.344 80 175 79.7312 175 79.1936V37.8065C175 37.2688 175.344 37 176.032 37H198.408C199.069 37 199.619 37.1398 200.06 37.4194L209.555 44.7742C209.858 44.9892 210.037 45.172 210.092 45.3226C210.174 45.4731 210.216 45.7204 210.216 46.0645V54.9032C210.216 55.1828 210.078 55.4301 209.803 55.6452L205.261 59.0968L201.422 61.6774L205.963 66.3871L210.628 74.1935C210.739 74.3871 210.821 74.5807 210.876 74.7742C210.959 74.9462 211 75.1613 211 75.4194V79.1936C211 79.7312 210.656 80 209.968 80H199.069C198.463 80 198.05 79.785 197.83 79.3548L191.183 64.2581H188.087V79.1936C188.087 79.7312 187.743 80 187.055 80H176.032ZM192.628 56.3548C194.913 56.3548 196.468 55.9893 197.294 55.2581C198.119 54.5054 198.532 53.1075 198.532 51.0645C198.532 49 198.119 47.6022 197.294 46.871C196.468 46.1183 194.913 45.7419 192.628 45.7419C190.372 45.7419 188.817 46.1183 187.963 46.871C187.11 47.6022 186.683 49 186.683 51.0645C186.683 53.1075 187.11 54.5054 187.963 55.2581C188.817 55.9893 190.372 56.3548 192.628 56.3548Z" fill="black"/>
<path d="M140.048 80C139.349 80 139 79.7312 139 79.1936V37.8065C139 37.2688 139.349 37 140.048 37H163.228C163.898 37 164.457 37.172 164.904 37.5161L173.287 43.9677C173.762 44.3333 174 44.7634 174 45.2581V56.3871C174 56.9032 173.762 57.3333 173.287 57.6774L164.904 64.129C164.457 64.4946 163.898 64.6774 163.228 64.6774H152.958V79.1936C152.958 79.7312 152.609 80 151.91 80H140.048ZM156.102 55.9032C158.421 55.9032 160 55.5484 160.838 54.8387C161.705 54.129 162.138 52.7849 162.138 50.8065C162.138 48.828 161.705 47.4839 160.838 46.7742C160 46.0645 158.421 45.7097 156.102 45.7097C153.81 45.7097 152.232 46.0645 151.365 46.7742C150.527 47.4839 150.108 48.828 150.108 50.8065C150.108 52.7849 150.527 54.129 151.365 54.8387C152.232 55.5484 153.81 55.9032 156.102 55.9032Z" fill="black"/>
<defs>
<clipPath id="clip0_1737_114">
<rect width="115" height="117" fill="white"/>
</clipPath>
</defs>
</svg>
